<svg xmlns="http://www.w3.org/2000/svg" viewBox="229.896 161.39 27.1 27.1" width="48" height="48">
  <path d="M 243.446 177.74 L 233.296 187.89 C 232.896 188.29 232.43 188.49 231.896 188.49 C 231.363 188.49 230.896 188.29 230.496 187.89 C 230.096 187.49 229.896 187.023 229.896 186.49 C 229.896 185.956 230.096 185.49 230.496 185.09 L 240.646 174.94 L 230.496 164.79 C 230.096 164.39 229.896 163.923 229.896 163.39 C 229.896 162.856 230.096 162.39 230.496 161.99 C 230.896 161.59 231.363 161.39 231.896 161.39 C 232.43 161.39 232.896 161.59 233.296 161.99 L 243.446 172.14 L 253.596 161.99 C 253.996 161.59 254.463 161.39 254.996 161.39 C 255.53 161.39 255.996 161.59 256.396 161.99 C 256.796 162.39 256.996 162.856 256.996 163.39 C 256.996 163.923 256.796 164.39 256.396 164.79 L 246.246 174.94 L 256.396 185.09 C 256.796 185.49 256.996 185.956 256.996 186.49 C 256.996 187.023 256.796 187.49 256.396 187.89 C 255.996 188.29 255.53 188.49 254.996 188.49 C 254.463 188.49 253.996 188.29 253.596 187.89 L 243.446 177.74 Z" style="fill: rgb(208, 0, 0);"></path>
</svg>