<svg xmlns="http://www.w3.org/2000/svg"  viewBox="472.17 113.545 37 25.6" width="48" height="48">
  <path d="M7.5 36.8q-.85 0-1.425-.575Q5.5 35.65 5.5 34.8q0-.85.575-1.4.575-.55 1.425-.55h33q.85 0 1.425.575.575.575.575 1.375 0 .85-.575 1.425-.575.575-1.425.575Zm0-10.8q-.85 0-1.425-.575Q5.5 24.85 5.5 24q0-.85.575-1.425Q6.65 22 7.5 22h33q.85 0 1.425.575.575.575.575 1.425 0 .85-.575 1.425Q41.35 26 40.5 26Zm0-10.85q-.85 0-1.425-.575Q5.5 14 5.5 13.2q0-.85.575-1.425Q6.65 11.2 7.5 11.2h33q.85 0 1.425.575.575.575.575 1.425 0 .85-.575 1.4-.575.55-1.425.55Z" transform="matrix(1, 0, 0, 1, 466.67021, 102.345348)" style="fill: rgb(208, 0, 0);"></path>
</svg>